<?xml version="1.0" standalone="no"?>
<!DOCTYPE svg PUBLIC "-//W3C//DTD SVG 20010904//EN" "http://www.w3.org/TR/2001/REC-SVG-20010904/DTD/svg10.dtd">
<svg xmlns="http://www.w3.org/2000/svg" version="1.0" width="1400.000000pt" height="1050.000000pt" viewBox="0 0 1400.000000 1050.000000" preserveAspectRatio="xMidYMid meet">
<metadata>
Created by potrace 1.16, written by Peter Selinger 2001-2019
<meta name="Producer" content="Online-Convert"/></metadata>
<g transform="translate(0.000000,1050.000000) scale(0.100000,-0.100000)" fill="#000000" stroke="none">
<path d="M12015 9383 c-187 -10 -515 -73 -729 -140 -330 -104 -721 -296 -1017 -500 -276 -190 -543 -438 -735 -683 -65 -83 -67 -85 -133 -103 -151 -40 -233 -71 -368 -138 -159 -78 -232 -136 -258 -202 -14 -36 -23 -45 -68 -62 -42 -16 -53 -25 -55 -46 -3 -23 -9 -27 -50 -33 -136 -18 -275 -156 -372 -370 -58 -128 -35 -160 134 -178 224 -24 401 25 476 131 19 28 42 50 51 51 9 0 36 15 60 33 24 18 52 31 62 29 15 -3 6 -15 -42 -59 -42 -37 -64 -66 -72 -93 -11 -35 -18 -41 -61 -56 -46 -15 -75 -44 -64 -63 3 -5 -20 -14 -52 -20 -132 -26 -245 -131 -338 -316 -102 -202 -79 -228 201 -229 128 -1 160 2 221 21 76 24 152 81 180 134 9 19 22 29 36 29 12 0 35 12 51 28 26 25 35 27 105 27 61 0 87 5 125 24 26 13 50 21 54 18 3 -4 -1 -23 -9 -43 -11 -28 -24 -40 -52 -49 -50 -17 -78 -44 -70 -67 5 -16 -1 -18 -38 -18 -134 0 -302 -170 -395 -400 -21 -53 -22 -64 -11 -88 22 -45 59 -55 220 -60 237 -7 353 31 420 137 17 28 36 47 43 45 6 -3 32 10 57 29 40 31 49 34 99 30 69 -6 137 19 255 93 124 78 220 152 302 234 54 53 78 70 99 70 45 0 207 28 357 61 737 163 1540 676 2004 1281 256 334 445 751 503 1108 14 90 8 132 -29 189 -34 52 -86 79 -247 125 -271 77 -538 105 -850 89z m380 -73 c211 -18 461 -72 591 -130 47 -21 64 -35 77 -63 9 -19 17 -43 17 -53 0 -15 -3 -14 -17 6 -29 42 -55 57 -148 89 -283 97 -577 130 -990 111 -93 -4 -110 -3 -110 10 0 31 345 49 580 30z m-621 -93 c219 -248 429 -562 576 -862 59 -122 200 -461 200 -483 0 -15 -159 -189 -281 -307 -463 -448 -1116 -802 -1704 -924 -248 -51 -632 -70 -685 -35 -35 24 -113 99 -172 167 l-50 57 74 78 c156 164 197 266 147 369 -15 30 -35 52 -67 71 -43 25 -55 27 -147 26 -89 -2 -197 -21 -267 -49 -14 -5 -20 5 -37 59 -11 35 -26 92 -33 126 l-12 62 52 102 c61 120 163 277 258 396 94 118 327 348 459 453 382 305 857 553 1305 682 105 30 279 71 317 74 6 1 37 -27 67 -62z m-3004 -1741 c0 -37 66 -159 115 -214 43 -48 44 -50 26 -66 -18 -16 -21 -14 -60 30 -50 57 -92 130 -117 202 -17 46 -17 54 -4 62 25 16 40 11 40 -14z m515 -59 c12 -39 25 -82 29 -95 6 -19 2 -24 -37 -41 -24 -11 -69 -31 -99 -45 -30 -14 -57 -26 -60 -26 -13 0 -17 66 -6 107 8 34 28 63 76 115 36 38 67 66 70 63 3 -3 15 -38 27 -78z m-584 -79 c18 -35 50 -89 72 -120 38 -54 39 -58 25 -80 -28 -43 -104 -72 -200 -76 -123 -6 -195 4 -203 29 -8 26 68 169 120 225 41 44 106 84 137 84 12 0 29 -22 49 -62z m1051 -38 c64 -18 50 -25 -50 -26 -109 0 -208 -23 -350 -79 -111 -43 -117 -44 -117 -22 0 14 22 28 85 53 178 73 338 100 432 74z m-851 -432 c16 -63 53 -130 105 -194 43 -52 45 -57 29 -73 -15 -15 -19 -13 -52 24 -84 96 -155 255 -123 275 24 16 29 12 41 -32z m-80 -110 c13 -28 43 -79 66 -112 24 -34 43 -69 43 -80 0 -43 -85 -87 -195 -100 -58 -7 -193 8 -207 22 -6 6 -7 24 -3 40 8 39 78 157 119 201 28 31 116 81 142 81 6 0 21 -23 35 -52z m918 -115 c36 -35 63 -64 60 -66 -11 -10 -151 -47 -177 -47 -36 0 -90 18 -118 39 -38 30 -89 94 -77 98 6 2 48 30 93 62 l82 59 36 -41 c21 -23 66 -70 101 -104z m-335 -338 c16 -26 44 -65 64 -87 33 -37 34 -40 18 -56 -17 -16 -20 -14 -62 31 -49 54 -111 172 -120 229 -5 30 -3 37 12 40 15 3 23 -8 40 -53 11 -31 33 -78 48 -104z m-123 -7 c17 -34 46 -84 65 -111 19 -27 34 -58 34 -68 0 -28 -59 -67 -130 -85 -50 -13 -86 -15 -158 -10 -52 4 -100 10 -108 13 -22 8 -17 35 26 120 57 115 151 202 217 203 18 0 30 -14 54 -62z"/>
<path d="M11170 8571 c-295 -41 -500 -272 -500 -564 0 -169 50 -289 169 -408 125 -124 258 -176 431 -166 306 17 541 263 540 565 -1 112 -12 158 -62 260 -105 213 -347 344 -578 313z m199 -66 c79 -21 150 -59 206 -110 34 -31 39 -38 15 -21 -294 209 -699 97 -836 -232 -28 -70 -31 -47 -4 33 28 83 63 138 125 199 60 59 146 109 226 130 70 19 200 20 268 1z m-6 -220 c65 -30 129 -92 158 -153 35 -73 33 -189 -5 -262 -35 -70 -49 -85 -113 -126 -62 -40 -165 -60 -229 -43 -101 26 -161 74 -215 173 -26 49 -32 71 -32 125 -2 136 97 272 218 302 17 4 61 7 98 8 53 1 80 -4 120 -24z"/>
<path d="M1990 8440 l0 -471 123 3 122 3 -4 106 c-5 155 -9 149 108 149 218 0 338 56 402 187 20 41 23 63 24 158 0 98 -3 115 -25 158 -29 57 -86 112 -144 138 -68 30 -159 39 -388 39 l-218 0 0 -470z m481 251 c39 -19 63 -68 63 -127 -2 -102 -55 -136 -204 -132 l-95 3 0 125 c-1 69 1 131 4 139 5 17 193 11 232 -8z"/>
<path d="M6600 8760 l0 -100 -50 0 -50 0 0 -80 0 -80 50 0 50 0 0 -172 c0 -95 5 -190 11 -211 14 -50 64 -106 117 -129 54 -24 160 -26 233 -4 82 24 80 21 56 111 -11 44 -21 81 -22 82 -1 2 -27 -3 -59 -9 -56 -12 -59 -12 -77 11 -17 20 -19 41 -19 172 l0 148 91 3 91 3 0 75 0 75 -91 3 -91 3 0 99 0 100 -120 0 -120 0 0 -100z"/>
<path d="M2892 8337 l3 -362 115 0 115 0 5 205 c4 174 8 210 23 233 24 37 72 59 142 66 l60 6 3 108 3 107 -38 0 c-50 0 -132 -39 -165 -79 l-27 -31 -3 52 -3 53 -118 2 -117 1 2 -361z"/>
<path d="M3653 8685 c-99 -30 -186 -105 -226 -194 -31 -67 -31 -246 -1 -312 62 -134 193 -209 364 -209 171 0 302 75 364 209 31 67 31 245 0 312 -44 94 -132 167 -236 195 -66 17 -209 17 -265 -1z m216 -202 c46 -35 64 -70 69 -131 8 -114 -52 -192 -148 -192 -110 0 -176 113 -140 239 27 95 144 139 219 84z"/>
<path d="M4177 8693 c-4 -7 143 -360 248 -598 42 -94 43 -119 7 -155 -36 -35 -71 -39 -125 -11 l-38 19 -23 -36 c-12 -21 -35 -58 -50 -84 l-27 -47 43 -24 c56 -33 110 -47 179 -47 122 0 207 56 263 173 47 99 316 788 316 809 0 6 -47 9 -117 6 l-117 -3 -73 -224 c-40 -124 -75 -226 -76 -228 -2 -2 -32 77 -67 174 -35 98 -74 202 -86 231 l-23 52 -115 0 c-63 0 -117 -3 -119 -7z"/>
<path d="M5213 8686 c-105 -33 -192 -121 -224 -228 -59 -194 22 -393 189 -460 48 -19 75 -23 177 -23 111 0 125 2 181 28 34 16 77 44 95 63 l33 34 -60 61 -61 60 -52 -32 c-102 -63 -211 -46 -260 42 l-22 39 252 0 252 0 -6 78 c-14 178 -95 297 -231 337 -61 18 -206 18 -263 1z m223 -187 c14 -14 27 -42 31 -62 l6 -37 -132 0 c-88 0 -131 4 -131 11 0 27 36 83 64 101 44 27 128 21 162 -13z"/>
<path d="M6003 8681 c-106 -36 -173 -102 -214 -210 -28 -75 -24 -231 9 -303 31 -70 92 -131 165 -164 56 -26 72 -29 167 -29 119 0 166 11 234 56 42 28 106 104 95 113 -14 10 -161 96 -165 96 -4 0 -15 -11 -25 -24 -11 -14 -39 -32 -64 -42 -77 -29 -143 -3 -176 69 -54 119 9 257 116 257 55 0 89 -13 119 -45 l23 -25 82 46 c45 25 83 50 86 54 8 13 -48 76 -95 109 -25 17 -67 37 -95 46 -69 20 -197 19 -262 -4z"/>
<path d="M7335 8683 c-177 -54 -281 -229 -246 -415 23 -125 86 -208 199 -261 64 -30 73 -32 187 -32 110 0 125 2 179 28 89 41 138 86 174 159 102 208 9 446 -202 518 -73 25 -216 26 -291 3z m213 -193 c96 -59 107 -217 20 -295 -32 -30 -45 -35 -86 -35 -56 0 -103 26 -133 72 -29 47 -24 169 8 214 44 62 129 81 191 44z"/>
<path d="M2104 7336 c-144 -33 -263 -98 -376 -205 -120 -114 -199 -255 -233 -416 -22 -106 -20 -306 5 -424 57 -279 267 -504 550 -593 69 -21 92 -23 280 -22 195 0 209 1 285 27 305 102 520 364 551 674 l7 63 706 -2 706 -3 7 -62 c29 -268 200 -509 443 -627 129 -63 176 -71 405 -71 195 1 209 2 285 28 235 78 430 267 513 497 25 67 42 149 42 196 0 29 3 34 18 30 9 -2 37 -8 62 -12 288 -44 589 -290 709 -579 58 -139 75 -224 75 -385 0 -117 -4 -161 -21 -227 -107 -403 -434 -693 -838 -742 -57 -7 -338 -11 -771 -11 l-681 0 -6 73 c-30 350 -323 651 -680 697 -412 54 -745 -100 -912 -421 -47 -90 -85 -223 -85 -296 l0 -43 -172 0 c-203 0 -331 -17 -461 -60 -391 -131 -683 -466 -753 -864 -18 -101 -18 -307 0 -406 51 -284 224 -550 468 -723 72 -52 186 -107 288 -142 l65 -22 8 -94 c31 -376 278 -662 637 -735 114 -23 374 -15 470 14 248 76 430 240 523 473 27 66 57 213 57 275 l0 34 660 0 660 0 0 -54 c0 -65 33 -221 61 -291 32 -77 107 -226 135 -265 158 -222 412 -388 684 -447 94 -20 305 -20 415 1 105 19 233 66 330 121 43 25 80 45 82 45 6 0 68 55 151 135 124 119 213 260 271 432 39 113 43 143 48 313 5 158 -7 250 -49 370 -131 375 -414 630 -803 725 -87 21 -329 32 -388 17 -23 -6 -67 -16 -97 -23 -219 -47 -460 -201 -607 -389 -70 -90 -105 -150 -149 -255 -41 -100 -50 -130 -68 -225 l-11 -65 -668 -3 -667 -2 0 33 c0 88 -60 254 -128 354 -108 158 -282 279 -465 323 -107 26 -362 28 -470 4 -210 -47 -410 -196 -516 -385 -36 -65 -77 -179 -87 -244 -3 -25 -11 -45 -18 -45 -6 0 -47 15 -91 33 -161 66 -338 212 -437 363 -263 396 -205 928 136 1251 214 204 444 283 821 283 l135 0 0 -42 c0 -63 26 -174 57 -248 106 -256 337 -438 613 -481 112 -17 346 -6 440 21 212 61 391 209 490 407 42 85 80 221 80 291 l0 42 698 0 c419 0 730 4 780 10 556 70 981 547 985 1105 1 248 -66 460 -210 662 -171 239 -448 415 -729 462 l-70 12 -11 88 c-26 201 -125 380 -283 508 -82 66 -157 106 -262 141 -79 26 -92 27 -288 27 -187 0 -212 -2 -280 -23 -199 -63 -356 -184 -462 -357 -57 -93 -108 -254 -108 -342 l0 -43 -708 0 -709 0 -12 84 c-44 317 -247 557 -556 656 -60 20 -96 24 -255 26 -132 3 -203 -1 -246 -10z m438 -150 c224 -60 395 -231 458 -457 25 -93 29 -338 5 -428 -48 -186 -171 -338 -338 -421 -119 -59 -200 -73 -382 -67 -226 7 -329 49 -470 191 -90 90 -143 183 -169 296 -21 87 -21 332 -1 419 57 242 278 442 530 481 83 12 298 4 367 -14z m3028 13 c272 -34 479 -221 551 -499 18 -72 16 -323 -4 -400 -56 -213 -227 -394 -434 -461 -93 -30 -324 -38 -433 -15 -252 53 -456 265 -501 520 -18 106 -7 335 21 416 43 129 138 256 246 331 144 99 333 136 554 108z m-1440 -2100 c211 -26 392 -152 489 -338 62 -119 74 -181 75 -366 0 -150 -2 -165 -29 -244 -71 -207 -225 -358 -435 -423 -65 -20 -96 -23 -235 -23 -178 0 -250 15 -370 78 -80 42 -202 164 -248 247 -67 122 -82 193 -81 380 0 151 2 172 27 246 62 186 203 336 383 406 113 43 267 57 424 37z m-512 -2155 c218 -44 412 -214 482 -423 44 -132 50 -344 15 -483 -59 -224 -241 -403 -470 -463 -81 -21 -336 -20 -425 1 -79 18 -197 80 -267 140 -91 78 -164 196 -199 324 -28 102 -25 350 5 450 36 117 77 187 166 275 95 96 209 159 327 180 102 18 273 18 366 -1z"/>
<path d="M2167 7032 c-26 -29 -22 -77 9 -101 22 -17 41 -21 110 -21 l84 0 0 -441 c0 -502 -1 -498 77 -499 22 0 38 8 52 26 21 26 21 36 21 520 0 481 -1 495 -20 514 -18 18 -33 20 -168 20 -132 0 -151 -2 -165 -18z"/>
<path d="M5268 7031 c-56 -22 -115 -64 -151 -107 -30 -36 -77 -130 -77 -156 0 -53 50 -95 93 -79 28 11 40 25 57 71 47 125 189 184 310 129 56 -25 77 -44 101 -91 29 -57 25 -123 -13 -199 -32 -65 -164 -205 -407 -434 -80 -75 -93 -92 -94 -121 -1 -19 7 -42 18 -54 18 -19 28 -20 352 -20 320 0 334 1 353 20 29 29 26 74 -6 99 -25 20 -39 21 -243 21 l-216 0 69 63 c116 104 261 271 302 350 35 66 38 80 42 168 4 88 2 102 -23 158 -32 70 -96 135 -170 171 -68 34 -226 40 -297 11z"/>
<path d="M3880 4923 c-63 -23 -152 -114 -173 -177 -34 -99 -14 -176 46 -176 41 0 65 26 72 80 13 96 76 153 170 153 68 0 116 -29 144 -87 54 -111 -11 -230 -134 -244 -52 -5 -78 -30 -78 -73 0 -41 20 -58 82 -68 56 -9 92 -30 125 -75 30 -39 30 -143 0 -182 -34 -46 -70 -67 -124 -72 -96 -9 -160 40 -181 140 -14 66 -33 88 -74 88 -51 0 -69 -28 -63 -98 10 -104 71 -192 166 -239 76 -37 181 -39 259 -4 107 48 177 156 177 276 0 78 -30 157 -79 208 l-26 28 32 36 c78 89 97 217 48 323 -35 74 -67 110 -131 145 -66 36 -185 45 -258 18z"/>
<path d="M3550 2797 c-32 -16 -490 -674 -505 -725 -5 -17 1 -30 24 -52 l29 -30 206 0 206 0 0 -111 c0 -61 5 -119 11 -130 25 -47 95 -42 118 8 6 13 11 73 11 133 l0 110 65 0 c52 0 69 4 85 20 24 24 26 57 4 88 -13 19 -24 22 -84 22 l-69 0 -3 321 -3 321 -24 19 c-27 22 -37 23 -71 6z m-40 -482 l0 -185 -125 0 c-70 0 -125 4 -125 9 0 5 33 57 73 115 39 58 94 137 120 176 26 38 50 70 53 70 2 0 4 -83 4 -185z"/>
<path d="M9080 5724 c-30 -8 -60 -17 -67 -19 -10 -3 23 -146 128 -546 l9 -36 66 18 c37 10 69 21 72 24 3 3 -16 85 -41 183 -26 97 -59 225 -74 285 -15 59 -29 107 -32 106 -3 0 -31 -7 -61 -15z"/>
<path d="M11180 5702 c-20 -16 -26 -40 -46 -183 -20 -138 -27 -167 -45 -181 -23 -19 -56 -23 -77 -9 -8 5 -58 66 -111 137 -127 169 -122 168 -280 49 l-114 -85 -142 0 c-83 0 -180 -6 -231 -15 -433 -75 -795 -348 -998 -751 -61 -124 -113 -305 -123 -435 -4 -55 -10 -79 -19 -79 -26 0 -62 -23 -72 -44 -6 -13 -20 -72 -32 -132 -12 -60 -24 -111 -25 -112 -2 -2 -41 23 -88 56 -159 113 -147 115 -304 -40 -68 -68 -127 -134 -130 -147 -7 -28 13 -67 89 -174 27 -38 46 -73 41 -77 -4 -4 -57 -17 -118 -29 -160 -33 -155 -25 -155 -237 0 -149 2 -175 18 -192 12 -16 49 -28 135 -46 65 -13 121 -26 123 -29 3 -3 -26 -51 -65 -108 -43 -63 -71 -113 -71 -129 0 -20 30 -56 133 -158 87 -85 141 -132 155 -132 17 0 103 54 221 138 16 11 20 2 44 -115 20 -98 31 -132 48 -145 18 -16 44 -18 191 -18 210 0 201 -6 238 169 l25 120 110 -74 c60 -41 118 -75 128 -75 10 0 50 30 87 66 l68 65 4 -138 c3 -131 5 -141 33 -192 16 -30 46 -67 67 -83 l36 -30 4 -232 c3 -217 5 -234 27 -283 29 -65 91 -124 157 -149 43 -17 76 -19 259 -19 208 0 210 0 260 27 60 31 104 77 136 138 23 43 24 56 27 280 l4 235 40 34 c24 20 53 60 69 95 29 61 29 63 29 252 0 277 24 337 179 448 46 34 100 75 120 92 l35 32 -47 55 -48 56 -92 -67 c-180 -131 -257 -231 -286 -370 -6 -29 -11 -135 -11 -235 0 -163 -2 -185 -20 -214 -40 -66 -49 -68 -405 -68 -304 0 -322 1 -355 20 -62 36 -70 67 -70 266 0 97 -5 200 -10 230 -25 131 -105 241 -240 332 -96 64 -272 241 -332 332 -91 140 -153 292 -185 452 -22 116 -22 357 1 463 82 374 316 679 653 850 132 66 334 120 453 120 54 0 59 -2 68 -27 5 -16 49 -80 96 -143 48 -63 89 -125 93 -138 6 -27 -12 -68 -35 -77 -9 -3 -91 4 -184 17 l-168 22 -24 -24 c-21 -22 -28 -50 -57 -257 -28 -202 -31 -236 -19 -258 16 -30 43 -38 210 -60 132 -17 172 -34 178 -73 5 -36 -14 -58 -135 -148 -65 -49 -123 -95 -130 -104 -23 -28 -14 -66 29 -126 83 -116 231 -309 246 -321 35 -28 67 -14 193 80 139 105 149 110 183 97 47 -18 50 -39 26 -205 -24 -164 -22 -198 12 -216 34 -18 432 -75 490 -70 32 2 46 44 68 191 24 165 31 187 62 199 42 16 74 -10 172 -140 99 -132 124 -151 169 -128 30 16 322 236 358 270 50 46 44 64 -71 214 -92 120 -103 140 -95 165 18 56 47 60 244 30 133 -21 153 -19 180 13 13 16 71 394 71 463 0 64 -23 77 -177 98 -178 24 -199 31 -211 64 -5 15 -6 37 -1 49 4 12 62 62 128 112 120 91 151 122 151 151 0 24 -286 403 -311 412 -33 13 -47 5 -185 -97 -133 -100 -165 -112 -197 -77 -22 24 -21 66 3 226 20 138 17 164 -24 185 -20 10 -415 71 -462 71 -12 0 -32 -8 -44 -18z m247 -161 c68 -10 126 -21 130 -25 4 -3 2 -44 -5 -89 -15 -103 -15 -187 -1 -224 27 -73 119 -133 204 -133 63 0 110 22 209 99 44 34 82 61 85 61 8 -1 161 -208 161 -217 -1 -5 -44 -39 -96 -78 -102 -75 -126 -104 -144 -177 -24 -96 41 -218 132 -247 18 -5 80 -17 137 -25 57 -9 106 -18 109 -20 3 -3 -3 -66 -13 -139 l-18 -133 -86 12 c-47 7 -115 13 -152 13 -55 1 -72 -3 -111 -28 -51 -32 -93 -94 -103 -154 -12 -62 12 -122 91 -228 l73 -98 -100 -77 c-56 -42 -107 -77 -115 -78 -8 0 -45 39 -82 89 -72 96 -111 129 -176 146 -82 22 -192 -25 -235 -101 -14 -25 -27 -78 -38 -152 -8 -62 -19 -117 -23 -121 -7 -8 -259 18 -268 27 -1 2 5 59 14 127 20 150 13 189 -48 255 -31 33 -55 48 -96 60 -86 25 -135 10 -257 -81 -54 -41 -102 -72 -106 -67 -3 4 -41 54 -84 111 -57 76 -74 105 -64 111 7 5 52 39 101 77 102 78 138 134 138 212 0 47 -28 121 -58 154 -33 37 -95 59 -213 75 -66 10 -119 22 -119 27 1 28 37 256 42 260 3 3 59 -2 126 -12 137 -19 170 -14 239 36 76 55 104 170 64 256 -11 22 -46 76 -80 120 -33 44 -61 83 -61 86 0 5 90 75 206 161 7 5 36 -24 81 -84 38 -51 88 -106 110 -121 75 -52 190 -46 259 15 49 43 69 89 83 188 17 124 22 150 30 150 3 0 61 -9 128 -19z m-2397 -1714 c0 -12 9 -55 20 -95 11 -39 20 -76 20 -81 0 -5 -31 -18 -68 -30 -113 -34 -199 -110 -258 -227 -105 -208 -13 -464 203 -566 120 -57 241 -58 361 -3 86 39 143 92 198 183 4 6 158 -106 192 -139 34 -33 72 -97 72 -121 0 -8 -33 -46 -73 -86 l-73 -72 -88 61 c-101 71 -148 82 -205 52 -52 -27 -69 -58 -93 -170 l-23 -103 -86 0 -85 0 -18 95 c-20 107 -44 151 -96 178 -59 30 -105 19 -206 -52 l-89 -62 -62 65 -63 65 59 90 c67 102 77 137 55 189 -29 70 -50 83 -169 108 -130 26 -116 13 -113 107 l3 82 75 18 c130 30 147 36 174 63 34 35 51 95 36 138 -5 17 -35 67 -65 111 l-56 79 65 65 65 65 91 -62 c82 -55 97 -62 141 -62 42 0 54 5 89 36 25 23 42 48 46 70 7 38 24 46 24 11z m130 -389 c46 -87 118 -192 179 -261 28 -32 51 -64 51 -72 0 -7 -15 -33 -33 -56 -88 -116 -228 -149 -355 -85 -186 94 -206 360 -35 480 35 25 112 53 149 55 6 1 26 -27 44 -61z m1490 -1438 l0 -70 -285 0 -285 0 0 70 0 70 285 0 285 0 0 -70z m-2 -285 c-4 -60 -7 -69 -41 -103 l-37 -37 -204 0 c-204 0 -204 0 -231 25 -40 37 -55 73 -55 130 l0 50 286 0 286 0 -4 -65z"/>
<path d="M11180 5054 c-165 -32 -326 -147 -406 -290 -125 -224 -84 -507 100 -689 116 -115 237 -165 400 -165 165 0 300 54 409 165 109 111 167 249 167 400 0 262 -149 469 -400 557 -54 19 -216 32 -270 22z m198 -158 c148 -40 260 -146 303 -288 62 -202 -29 -412 -219 -505 -74 -37 -79 -38 -186 -38 -104 0 -115 2 -179 32 -183 87 -284 299 -233 489 60 226 295 368 514 310z"/>
<path d="M8430 5289 c-23 -33 -41 -62 -39 -63 2 -2 92 -65 199 -141 107 -76 219 -156 248 -178 30 -23 56 -36 61 -31 4 5 24 32 45 61 l37 52 -33 24 c-41 31 -449 320 -464 330 -7 4 -29 -18 -54 -54z"/>
<path d="M9763 4876 c-268 -202 -417 -519 -399 -851 14 -262 110 -481 292 -662 97 -97 181 -153 336 -227 87 -41 125 -65 166 -107 66 -67 111 -156 125 -248 l11 -71 74 0 74 0 -7 68 c-14 140 -78 267 -188 374 -48 47 -88 72 -211 132 -113 56 -170 90 -227 139 -293 251 -383 680 -213 1020 68 135 167 252 272 322 23 15 42 29 42 31 0 9 -76 124 -81 124 -4 0 -33 -20 -66 -44z"/>
<path d="M8540 4571 c-146 -37 -265 -72 -265 -77 0 -28 29 -134 37 -134 7 0 421 102 532 131 36 10 38 12 32 42 -18 88 -26 107 -49 106 -12 0 -141 -31 -287 -68z"/>
<path d="M11722 2998 l3 -73 250 0 250 0 3 73 3 72 -256 0 -256 0 3 -72z"/>
<path d="M11656 2648 c-25 -29 -45 -57 -43 -63 5 -14 410 -354 422 -354 11 0 101 108 94 112 -2 2 -44 37 -94 78 -49 42 -145 121 -212 177 l-122 102 -45 -52z"/>
<path d="M10290 2460 l0 -110 75 0 75 0 0 110 0 110 -75 0 -75 0 0 -110z"/>
<path d="M11290 2245 l0 -255 75 0 75 0 0 255 0 255 -75 0 -75 0 0 -255z"/>
</g>
</svg>
